<mxfile host="app.diagrams.net" modified="2024-01-21T15:48:21.671Z" agent="Mozilla/5.0 (Windows NT 10.0; Win64; x64) AppleWebKit/537.36 (KHTML, like Gecko) Chrome/109.0.0.0 Safari/537.36" etag="r-z9fsgH7fQ_us1P21CF" version="22.1.21" type="google" pages="2">
  <diagram name="Page-1" id="6tKYj15fQL-WdANzBw2b">
    <mxGraphModel grid="1" page="1" gridSize="10" guides="1" tooltips="1" connect="1" arrows="1" fold="1" pageScale="1" pageWidth="850" pageHeight="1100" math="0" shadow="0">
      <root>
        <mxCell id="0" />
        <mxCell id="1" parent="0" />
        <mxCell id="F1lQoI6iij9EIfafOThn-3" value="1" style="ellipse;whiteSpace=wrap;html=1;aspect=fixed;fillColor=#FF8000;strokeColor=#d6b656;" vertex="1" parent="1">
          <mxGeometry x="150" y="120" width="30" height="30" as="geometry" />
        </mxCell>
        <mxCell id="F1lQoI6iij9EIfafOThn-4" value="2" style="ellipse;whiteSpace=wrap;html=1;aspect=fixed;fillColor=#FF8000;strokeColor=#d6b656;" vertex="1" parent="1">
          <mxGeometry x="390" y="120" width="30" height="30" as="geometry" />
        </mxCell>
        <mxCell id="F1lQoI6iij9EIfafOThn-5" value="3" style="ellipse;whiteSpace=wrap;html=1;aspect=fixed;fillColor=#FF8000;strokeColor=#d6b656;" vertex="1" parent="1">
          <mxGeometry x="630" y="120" width="30" height="30" as="geometry" />
        </mxCell>
        <mxCell id="F1lQoI6iij9EIfafOThn-10" value="Kafka Processor Topology (Flat DAG)" style="text;html=1;strokeColor=none;fillColor=none;align=center;verticalAlign=middle;whiteSpace=wrap;rounded=0;" vertex="1" parent="1">
          <mxGeometry x="280" y="260" width="240" height="30" as="geometry" />
        </mxCell>
        <mxCell id="F1lQoI6iij9EIfafOThn-11" value="Source Processor" style="rounded=1;whiteSpace=wrap;html=1;fillColor=#dae8fc;strokeColor=#6c8ebf;" vertex="1" parent="1">
          <mxGeometry x="120" y="160" width="90" height="50" as="geometry" />
        </mxCell>
        <mxCell id="F1lQoI6iij9EIfafOThn-12" value="Stream Processor" style="rounded=1;whiteSpace=wrap;html=1;fillColor=#dae8fc;strokeColor=#6c8ebf;" vertex="1" parent="1">
          <mxGeometry x="360" y="160" width="90" height="50" as="geometry" />
        </mxCell>
        <mxCell id="F1lQoI6iij9EIfafOThn-13" value="&amp;nbsp;Sink&lt;br&gt;&amp;nbsp; Processor" style="rounded=1;whiteSpace=wrap;html=1;fillColor=#dae8fc;strokeColor=#6c8ebf;" vertex="1" parent="1">
          <mxGeometry x="600" y="160" width="90" height="50" as="geometry" />
        </mxCell>
        <mxCell id="F1lQoI6iij9EIfafOThn-14" value="Source Topic" style="text;html=1;strokeColor=none;fillColor=none;align=center;verticalAlign=middle;whiteSpace=wrap;rounded=0;" vertex="1" parent="1">
          <mxGeometry x="120" y="210" width="90" height="30" as="geometry" />
        </mxCell>
        <mxCell id="F1lQoI6iij9EIfafOThn-15" value="Processing Logic" style="text;html=1;strokeColor=none;fillColor=none;align=center;verticalAlign=middle;whiteSpace=wrap;rounded=0;" vertex="1" parent="1">
          <mxGeometry x="355" y="210" width="100" height="30" as="geometry" />
        </mxCell>
        <mxCell id="F1lQoI6iij9EIfafOThn-16" value="Destination Topic" style="text;html=1;strokeColor=none;fillColor=none;align=center;verticalAlign=middle;whiteSpace=wrap;rounded=0;" vertex="1" parent="1">
          <mxGeometry x="595" y="210" width="100" height="30" as="geometry" />
        </mxCell>
        <mxCell id="F1lQoI6iij9EIfafOThn-17" value="" style="endArrow=none;html=1;rounded=0;" edge="1" parent="1">
          <mxGeometry width="50" height="50" relative="1" as="geometry">
            <mxPoint x="105" y="230" as="sourcePoint" />
            <mxPoint x="705" y="230" as="targetPoint" />
            <Array as="points">
              <mxPoint x="105" y="260" />
              <mxPoint x="705" y="260" />
            </Array>
          </mxGeometry>
        </mxCell>
        <mxCell id="05hDE1xjEh5lDh9beN6P-1" value="" style="shape=flexArrow;endArrow=classic;html=1;rounded=0;" edge="1" parent="1">
          <mxGeometry width="50" height="50" relative="1" as="geometry">
            <mxPoint x="460" y="184.5" as="sourcePoint" />
            <mxPoint x="590" y="184.5" as="targetPoint" />
          </mxGeometry>
        </mxCell>
        <mxCell id="05hDE1xjEh5lDh9beN6P-2" value="" style="shape=flexArrow;endArrow=classic;html=1;rounded=0;" edge="1" parent="1">
          <mxGeometry width="50" height="50" relative="1" as="geometry">
            <mxPoint x="220" y="184.5" as="sourcePoint" />
            <mxPoint x="350" y="184.5" as="targetPoint" />
          </mxGeometry>
        </mxCell>
        <mxCell id="rbwZ94oEJBllbwxn1Ypo-6" value="" style="group" connectable="0" vertex="1" parent="1">
          <mxGeometry x="150" y="80" width="510" height="30" as="geometry" />
        </mxCell>
        <mxCell id="rbwZ94oEJBllbwxn1Ypo-1" value="A" style="ellipse;whiteSpace=wrap;html=1;aspect=fixed;fillColor=#B266FF;strokeColor=#9673a6;" vertex="1" parent="rbwZ94oEJBllbwxn1Ypo-6">
          <mxGeometry width="30" height="30" as="geometry" />
        </mxCell>
        <mxCell id="rbwZ94oEJBllbwxn1Ypo-2" value="" style="shape=flexArrow;endArrow=classic;html=1;rounded=0;" edge="1" parent="rbwZ94oEJBllbwxn1Ypo-6">
          <mxGeometry width="50" height="50" relative="1" as="geometry">
            <mxPoint x="40" y="14.5" as="sourcePoint" />
            <mxPoint x="230" y="15" as="targetPoint" />
          </mxGeometry>
        </mxCell>
        <mxCell id="rbwZ94oEJBllbwxn1Ypo-3" value="A&quot;" style="ellipse;whiteSpace=wrap;html=1;aspect=fixed;fillColor=#B266FF;strokeColor=#9673a6;" vertex="1" parent="rbwZ94oEJBllbwxn1Ypo-6">
          <mxGeometry x="480" width="30" height="30" as="geometry" />
        </mxCell>
        <mxCell id="rbwZ94oEJBllbwxn1Ypo-4" value="A&#39;" style="ellipse;whiteSpace=wrap;html=1;aspect=fixed;fillColor=#B266FF;strokeColor=#9673a6;" vertex="1" parent="rbwZ94oEJBllbwxn1Ypo-6">
          <mxGeometry x="240" width="30" height="30" as="geometry" />
        </mxCell>
        <mxCell id="rbwZ94oEJBllbwxn1Ypo-5" value="" style="shape=flexArrow;endArrow=classic;html=1;rounded=0;" edge="1" parent="rbwZ94oEJBllbwxn1Ypo-6">
          <mxGeometry width="50" height="50" relative="1" as="geometry">
            <mxPoint x="280" y="14.5" as="sourcePoint" />
            <mxPoint x="470" y="15" as="targetPoint" />
          </mxGeometry>
        </mxCell>
        <mxCell id="rbwZ94oEJBllbwxn1Ypo-8" value="B" style="ellipse;whiteSpace=wrap;html=1;aspect=fixed;fillColor=#B266FF;strokeColor=#9673a6;" vertex="1" parent="1">
          <mxGeometry x="150" y="40" width="30" height="30" as="geometry" />
        </mxCell>
        <mxCell id="rbwZ94oEJBllbwxn1Ypo-9" value="" style="shape=flexArrow;endArrow=classic;html=1;rounded=0;" edge="1" parent="1">
          <mxGeometry width="50" height="50" relative="1" as="geometry">
            <mxPoint x="190" y="54.5" as="sourcePoint" />
            <mxPoint x="380" y="55" as="targetPoint" />
          </mxGeometry>
        </mxCell>
        <mxCell id="rbwZ94oEJBllbwxn1Ypo-11" value="B&#39;" style="ellipse;whiteSpace=wrap;html=1;aspect=fixed;fillColor=#B266FF;strokeColor=#9673a6;" vertex="1" parent="1">
          <mxGeometry x="390" y="40" width="30" height="30" as="geometry" />
        </mxCell>
        <mxCell id="rbwZ94oEJBllbwxn1Ypo-13" value="C" style="ellipse;whiteSpace=wrap;html=1;aspect=fixed;fillColor=#B266FF;strokeColor=#9673a6;" vertex="1" parent="1">
          <mxGeometry x="150" width="30" height="30" as="geometry" />
        </mxCell>
      </root>
    </mxGraphModel>
  </diagram>
  <diagram id="TjX8Dufsh6M4SfO8pbeA" name="Page-2">
    <mxGraphModel grid="1" page="1" gridSize="10" guides="1" tooltips="1" connect="1" arrows="1" fold="1" pageScale="1" pageWidth="850" pageHeight="1100" math="0" shadow="0">
      <root>
        <mxCell id="0" />
        <mxCell id="1" parent="0" />
        <mxCell id="jQN7IbMDCtW8k7KpFkmb-8" style="edgeStyle=orthogonalEdgeStyle;rounded=0;orthogonalLoop=1;jettySize=auto;html=1;entryX=0;entryY=0.5;entryDx=0;entryDy=0;" edge="1" parent="1" source="jQN7IbMDCtW8k7KpFkmb-4" target="52nfHYfoAG056sIJ6zT6-2">
          <mxGeometry relative="1" as="geometry" />
        </mxCell>
        <mxCell id="jQN7IbMDCtW8k7KpFkmb-4" value="" style="whiteSpace=wrap;html=1;aspect=fixed;" vertex="1" parent="1">
          <mxGeometry x="20" y="210" width="80" height="80" as="geometry" />
        </mxCell>
        <mxCell id="jQN7IbMDCtW8k7KpFkmb-5" value="Spring Boot, SpringWeb, Security, Spring DataJPA Postgres,&lt;br&gt;spring Kafka" style="whiteSpace=wrap;html=1;aspect=fixed;" vertex="1" parent="1">
          <mxGeometry x="500" y="50" width="150" height="150" as="geometry" />
        </mxCell>
        <mxCell id="jQN7IbMDCtW8k7KpFkmb-7" value="Crowdstrike, palo alto fw&lt;br&gt;VMX Router" style="text;html=1;strokeColor=none;fillColor=none;align=center;verticalAlign=middle;whiteSpace=wrap;rounded=0;" vertex="1" parent="1">
          <mxGeometry x="30" y="230" width="60" height="30" as="geometry" />
        </mxCell>
        <mxCell id="jQN7IbMDCtW8k7KpFkmb-9" value="postgres" style="shape=cylinder3;whiteSpace=wrap;html=1;boundedLbl=1;backgroundOutline=1;size=15;" vertex="1" parent="1">
          <mxGeometry x="545" y="380" width="60" height="80" as="geometry" />
        </mxCell>
        <mxCell id="jQN7IbMDCtW8k7KpFkmb-12" value="&lt;div style=&quot;text-align: left;&quot;&gt;&lt;u style=&quot;background-color: initial;&quot;&gt;Interested&amp;nbsp; topic criteria&lt;/u&gt;&lt;/div&gt;&lt;div style=&quot;text-align: left;&quot;&gt;&lt;span style=&quot;font-size: 12px;&quot;&gt;1) Customer FNN&lt;/span&gt;&lt;/div&gt;&lt;div style=&quot;text-align: left;&quot;&gt;&lt;span style=&quot;font-size: 12px;&quot;&gt;2) Crowstrike vulerabilites&lt;/span&gt;&lt;/div&gt;&lt;div style=&quot;text-align: left;&quot;&gt;&lt;span style=&quot;font-size: 12px;&quot;&gt;3) Blocked Sites accessed&lt;/span&gt;&lt;/div&gt;&lt;div style=&quot;text-align: left;&quot;&gt;&lt;span style=&quot;font-size: 12px;&quot;&gt;4) Customer SRC IP&lt;/span&gt;&lt;/div&gt;&lt;div style=&quot;text-align: left;&quot;&gt;5) Customer email address&lt;/div&gt;&lt;div style=&quot;text-align: left;&quot;&gt;&lt;br&gt;&lt;/div&gt;&lt;div style=&quot;text-align: left;&quot;&gt;&lt;br&gt;&lt;/div&gt;&lt;div style=&quot;text-align: left;&quot;&gt;&lt;br&gt;&lt;/div&gt;&lt;div style=&quot;text-align: left;&quot;&gt;Entity Record&lt;/div&gt;&lt;div style=&quot;text-align: left;&quot;&gt;&lt;br&gt;&lt;/div&gt;" style="whiteSpace=wrap;html=1;aspect=fixed;" vertex="1" parent="1">
          <mxGeometry x="620" y="400" width="160" height="160" as="geometry" />
        </mxCell>
        <mxCell id="jQN7IbMDCtW8k7KpFkmb-14" value="Notification Service(SMTP)" style="rounded=0;whiteSpace=wrap;html=1;" vertex="1" parent="1">
          <mxGeometry x="500" y="50" width="150" height="40" as="geometry" />
        </mxCell>
        <mxCell id="52nfHYfoAG056sIJ6zT6-2" value="Kafka" style="rounded=0;whiteSpace=wrap;html=1;" vertex="1" parent="1">
          <mxGeometry x="220" y="230" width="120" height="40" as="geometry" />
        </mxCell>
        <mxCell id="52nfHYfoAG056sIJ6zT6-3" value="" style="endArrow=classic;html=1;rounded=0;exitX=0;exitY=0.5;exitDx=0;exitDy=0;entryX=1;entryY=0.5;entryDx=0;entryDy=0;" edge="1" parent="1" source="jQN7IbMDCtW8k7KpFkmb-5" target="52nfHYfoAG056sIJ6zT6-2">
          <mxGeometry width="50" height="50" relative="1" as="geometry">
            <mxPoint x="450" y="130" as="sourcePoint" />
            <mxPoint x="400" y="180" as="targetPoint" />
          </mxGeometry>
        </mxCell>
        <mxCell id="52nfHYfoAG056sIJ6zT6-4" value="" style="endArrow=classic;html=1;rounded=0;entryX=1;entryY=0.5;entryDx=0;entryDy=0;exitX=0;exitY=0.5;exitDx=0;exitDy=0;" edge="1" parent="1" target="52nfHYfoAG056sIJ6zT6-2">
          <mxGeometry width="50" height="50" relative="1" as="geometry">
            <mxPoint x="500" y="280" as="sourcePoint" />
            <mxPoint x="350" y="260" as="targetPoint" />
          </mxGeometry>
        </mxCell>
        <mxCell id="52nfHYfoAG056sIJ6zT6-10" style="edgeStyle=orthogonalEdgeStyle;rounded=0;orthogonalLoop=1;jettySize=auto;html=1;exitX=0.5;exitY=1;exitDx=0;exitDy=0;" edge="1" parent="1" source="52nfHYfoAG056sIJ6zT6-6" target="jQN7IbMDCtW8k7KpFkmb-9">
          <mxGeometry relative="1" as="geometry" />
        </mxCell>
        <mxCell id="52nfHYfoAG056sIJ6zT6-6" value="Spring Boot, SpringWeb, Security, Spring DataJPA Postgres,&lt;br&gt;spring Kafka" style="whiteSpace=wrap;html=1;aspect=fixed;" vertex="1" parent="1">
          <mxGeometry x="500" y="210" width="150" height="150" as="geometry" />
        </mxCell>
        <mxCell id="52nfHYfoAG056sIJ6zT6-7" value="Notification Service(SMTP)" style="rounded=0;whiteSpace=wrap;html=1;" vertex="1" parent="1">
          <mxGeometry x="500" y="210" width="150" height="40" as="geometry" />
        </mxCell>
        <mxCell id="52nfHYfoAG056sIJ6zT6-8" value="&lt;div style=&quot;text-align: left;&quot;&gt;&lt;u style=&quot;background-color: initial;&quot;&gt;Consumed topics&lt;/u&gt;&lt;/div&gt;&lt;div style=&quot;text-align: left;&quot;&gt;&lt;br&gt;&lt;/div&gt;" style="whiteSpace=wrap;html=1;aspect=fixed;" vertex="1" parent="1">
          <mxGeometry x="540" y="480" width="70" height="70" as="geometry" />
        </mxCell>
        <mxCell id="52nfHYfoAG056sIJ6zT6-16" value="" style="group" connectable="0" vertex="1" parent="1">
          <mxGeometry x="650" y="50" width="50" height="150" as="geometry" />
        </mxCell>
        <mxCell id="52nfHYfoAG056sIJ6zT6-11" value="Tomcat1&lt;br&gt;" style="rounded=0;whiteSpace=wrap;html=1;fillColor=none;horizontal=1;verticalAlign=top;" vertex="1" parent="52nfHYfoAG056sIJ6zT6-16">
          <mxGeometry width="50" height="150" as="geometry" />
        </mxCell>
        <mxCell id="52nfHYfoAG056sIJ6zT6-15" value="AngularApp" style="rounded=1;whiteSpace=wrap;html=1;direction=south;horizontal=0;" vertex="1" parent="52nfHYfoAG056sIJ6zT6-16">
          <mxGeometry x="10" y="30" width="30" height="90" as="geometry" />
        </mxCell>
        <mxCell id="52nfHYfoAG056sIJ6zT6-17" value="" style="group" connectable="0" vertex="1" parent="1">
          <mxGeometry x="650" y="210" width="50" height="150" as="geometry" />
        </mxCell>
        <mxCell id="52nfHYfoAG056sIJ6zT6-18" value="TomcatN" style="rounded=0;whiteSpace=wrap;html=1;fillColor=none;horizontal=1;verticalAlign=top;" vertex="1" parent="52nfHYfoAG056sIJ6zT6-17">
          <mxGeometry width="50" height="150" as="geometry" />
        </mxCell>
        <mxCell id="52nfHYfoAG056sIJ6zT6-19" value="AngularApp" style="rounded=1;whiteSpace=wrap;html=1;direction=south;horizontal=0;" vertex="1" parent="52nfHYfoAG056sIJ6zT6-17">
          <mxGeometry x="10" y="30" width="30" height="90" as="geometry" />
        </mxCell>
        <mxCell id="52nfHYfoAG056sIJ6zT6-20" value="Load Balancer" style="rounded=0;whiteSpace=wrap;html=1;horizontal=0;" vertex="1" parent="1">
          <mxGeometry x="710" width="10" height="360" as="geometry" />
        </mxCell>
        <mxCell id="52nfHYfoAG056sIJ6zT6-22" value="Server Platform&lt;br&gt;Core Platform and Services" style="rounded=0;whiteSpace=wrap;html=1;fillColor=none;verticalAlign=top;" vertex="1" parent="1">
          <mxGeometry x="500" width="200" height="200" as="geometry" />
        </mxCell>
        <mxCell id="52nfHYfoAG056sIJ6zT6-23" value="Resource Executive(BE) Drivers" style="whiteSpace=wrap;html=1;aspect=fixed;" vertex="1" parent="1">
          <mxGeometry x="290" width="80" height="80" as="geometry" />
        </mxCell>
      </root>
    </mxGraphModel>
  </diagram>
</mxfile>
